<?xml version="1.0" encoding="UTF-8"?>
<svg width="12px" height="23px" viewBox="0 0 12 23" version="1.1" xmlns="http://www.w3.org/2000/svg" xmlns:xlink="http://www.w3.org/1999/xlink">
    <!-- Generator: Sketch 60 (88103) - https://sketch.com -->
    <title>path3045 2</title>
    <desc>Created with Sketch.</desc>
    <g id="Page-1" stroke="none" stroke-width="1" fill="none" fill-rule="evenodd">
        <g id="Artboard-1" transform="translate(-1029.000000, -962.000000)" fill="#C0C1C4">
            <g id="mistery-box" transform="translate(610.000000, 436.000000)">
                <path d="M428.606522,537.476848 L420.053063,546.242552 C419.414155,546.896656 418.592126,547.83636 419.231033,548.489011 C419.650486,549.005011 420.260769,549.264851 420.899677,548.610748 L430.526215,538.745251 C430.866394,538.397281 431.020935,537.933384 430.99773,537.476848 C431.020935,537.020603 430.866394,536.556803 430.526215,536.208736 L420.899677,526.343212 C420.260769,525.68874 419.592869,526.096177 419.231033,526.524421 C418.592126,527.178514 419.414155,528.057322 420.053063,528.711416 L428.606522,537.476848 L428.606522,537.476848 Z" id="path3045-2" transform="translate(425.000000, 537.500000) scale(1, -1) translate(-425.000000, -537.500000) "></path>
            </g>
        </g>
    </g>
</svg>