<?xml version="1.0" encoding="UTF-8"?>
<svg width="27px" height="31px" viewBox="0 0 27 31" version="1.1" xmlns="http://www.w3.org/2000/svg" xmlns:xlink="http://www.w3.org/1999/xlink">
    <!-- Generator: Sketch 60 (88103) - https://sketch.com -->
    <title>path3117 2</title>
    <desc>Created with Sketch.</desc>
    <g id="Page-1" stroke="none" stroke-width="1" fill="none" fill-rule="evenodd">
        <g id="Artboard-1" transform="translate(-127.000000, -182.000000)" fill="#F37575">
            <g id="menu" transform="translate(100.000000, 80.000000)">
                <path d="M54,122.391403 L50.1341482,102.02238 L30.862796,102 L27,122.383828 C27,122.383828 28.0019246,122.076969 29.6201028,121.709029 L27.7845593,128.270189 L33.3828935,129.778364 L34.73314,124.718193 L34.73314,129.188922 L37.9083533,129.188922 L37.2936388,131.491825 L42.8935014,133 L44.6172717,126.52983 L45.7426542,130.749438 L51.3413574,129.241263 L49.242363,121.367987 C52.0512305,121.870615 54,122.391403 54,122.391403 L54,122.391403 Z M31.8201971,109.246641 L31.8020832,109.232987 L32.1832293,107.250627 L32.1877506,107.253288 L32.7994799,103.940633 L48.2823728,103.939118 L48.8820165,107.184623 L48.8910976,107.178554 L49.0695319,108.201979 L51.2432041,119.977798 C51.2432041,119.977798 48.8283992,118.785124 42.7791179,118.505649 L42.7848178,118.484382 L42.7371902,118.504095 C41.9484853,118.468068 41.1028785,118.445637 40.1873278,118.445637 C32.7579676,118.445637 29.840117,119.97168 29.840117,119.97168 L31.8201971,109.246641 L31.8201971,109.246641 Z M32.0077512,127.441377 L30.1544687,126.909908 L31.6533943,121.288748 C32.3039889,121.167363 33.0021241,121.04899 33.7402742,120.941297 L32.0077512,127.441377 L32.0077512,127.441377 Z M38.4143842,127.286976 L36.6712924,127.260077 L36.6712924,120.601713 C37.30272,120.549372 37.9457405,120.507324 38.5974557,120.481882 L38.5974557,126.600427 L38.4143842,127.286976 L38.4143842,127.286976 Z M43.8568729,121.987436 L43.6228891,122.799933 L41.5749035,130.570081 L39.7258331,130.026862 L39.9461951,129.188922 L40.5296087,129.188922 L40.5296087,126.978951 L42.244781,120.519463 C42.8980419,120.55549 43.5470521,120.60482 44.1856287,120.666289 L44.0591693,121.149496 L43.8568729,121.987436 L43.8568729,121.987436 Z M48.9865459,127.907978 L47.118154,128.380988 L45.6222811,122.763907 L46.1223223,120.884781 C46.4721386,120.931004 46.8144195,120.978781 47.1525463,121.028111 L48.9865459,127.907978 L48.9865459,127.907978 Z M40.5133787,109.234502 L44.8407252,112.198522 L49.2469036,109.219713 L49.0695319,108.201979 L48.8820165,107.184623 L44.8407252,109.831558 L40.5133787,106.867509 L36.1935772,109.80463 L32.1877506,107.253288 L31.8201971,109.246641 L36.1935772,112.170069 L40.5133787,109.234502 L40.5133787,109.234502 Z" id="path3117-2" transform="translate(40.500000, 117.500000) scale(1, -1) translate(-40.500000, -117.500000) "></path>
            </g>
        </g>
    </g>
</svg>