<?xml version="1.0" encoding="UTF-8"?>
<svg width="32px" height="33px" viewBox="0 0 32 33" version="1.1" xmlns="http://www.w3.org/2000/svg" xmlns:xlink="http://www.w3.org/1999/xlink">
    <!-- Generator: Sketch 60 (88103) - https://sketch.com -->
    <title>path3255</title>
    <desc>Created with Sketch.</desc>
    <g id="Page-1" stroke="none" stroke-width="1" fill="none" fill-rule="evenodd">
        <g id="Artboard-1" transform="translate(-124.000000, -262.000000)" fill="#F37A7A">
            <g id="menu" transform="translate(100.000000, 80.000000)">
                <path d="M53.998745,182.006446 L53.998745,215 L56,215 L56,182.006446 L53.998745,182.006446 L53.998745,182.006446 Z M50.9974627,215 L52.9983175,215 L52.9983175,182.006446 L50.9974627,182.006446 L50.9974627,215 L50.9974627,215 Z M47.9867764,189.976439 C47.9867764,189.976439 47.2067431,182.026994 41.0033927,182.026994 C37.8988663,182.026994 35.9410299,182 35.9410299,182 C35.9410299,182 33.5532997,182.049153 30.9572706,182.049153 C24.678415,182.049153 24,189.986113 24,189.986113 L24,199.574567 C24,199.574567 25.9070629,199.496387 25.9516119,199.63016 C26.2290805,200.466111 27.6566404,203.693675 30.0490725,203.693675 C33.5177345,203.693675 33.5255579,201.616742 36.5960097,201.616742 C38.7422267,201.616742 38.3627645,202.648143 40.8833415,202.648143 C46.0289399,202.648143 44.1207246,199.655532 48.0067849,199.574567 L47.9867764,199.574567 L47.9867764,189.976439 L47.9867764,189.976439 Z M30.2589222,201.629222 C28.4722188,201.629222 27.9141704,199.661927 27.8926812,199.544347 C27.8926812,199.544347 35.5662698,199.542697 35.4877362,199.542697 C33.8921145,199.542697 32.648223,201.629222 30.2589222,201.629222 L30.2589222,201.629222 Z M40.5887156,200.621646 C39.0751689,200.621646 37.5534188,199.637792 35.9734437,199.539499 C35.8949102,199.534652 45.1012435,199.509279 45.1012435,199.509279 C42.7408351,199.509279 43.8846237,200.621646 40.5887156,200.621646 L40.5887156,200.621646 Z M45.9949254,195.404199 L45.9922242,195.404199 L45.9922242,197.462154 L25.9981218,197.462154 L25.9981218,195.404199 L25.9871771,195.404199 L25.9871771,193.340983 L25.9981218,193.340983 L25.9981218,190.169022 C25.9981218,190.169022 26.5635934,184.067633 31.7974695,184.067633 C33.9601135,184.067633 35.9519345,184.062806 35.9519345,184.062806 C35.9519345,184.062806 37.5827313,184.083352 40.1709371,184.083352 C45.3415462,184.083352 45.9922242,190.162576 45.9922242,190.162576 L45.9922242,193.340983 L45.9949254,193.340983 L45.9949254,195.404199 L45.9949254,195.404199 Z M43.9940705,193.340983 L43.9940705,195.404199 L45.9922242,195.404199 L45.9922242,193.340983 L43.9940705,193.340983 L43.9940705,193.340983 Z M40.9943889,195.404199 L42.9936431,195.404199 L42.9936431,193.340983 L40.9943889,193.340983 L40.9943889,195.404199 L40.9943889,195.404199 Z M37.9927064,195.404199 L39.9923608,195.404199 L39.9923608,193.340983 L37.9927064,193.340983 L37.9927064,195.404199 L37.9927064,195.404199 Z M34.9914242,195.404199 L36.9906783,195.404199 L36.9906783,193.340983 L34.9914242,193.340983 L34.9914242,195.404199 L34.9914242,195.404199 Z M31.9901319,195.404199 L33.9894261,195.404199 L33.9894261,193.340983 L31.9901319,193.340983 L31.9901319,195.404199 L31.9901319,195.404199 Z M28.9884594,195.404199 L30.9881438,195.404199 L30.9881438,193.340983 L28.9884594,193.340983 L28.9884594,195.404199 L28.9884594,195.404199 Z M27.9864713,193.340983 L25.9981218,193.340983 L25.9981218,195.404199 L27.9864713,195.404199 L27.9864713,193.340983 L27.9864713,193.340983 Z M35.9918516,204.687224 C35.4385152,204.687224 34.9914242,205.148157 34.9914242,205.716975 L34.9914242,207.781428 C34.9914242,208.350246 35.4385152,208.811179 35.9918516,208.811179 C36.5436874,208.811179 36.992279,208.350246 36.992279,207.781428 L36.992279,205.716975 C36.992279,205.148157 36.5436874,204.687224 35.9918516,204.687224 L35.9918516,204.687224 Z M42.9952438,206.748376 C42.4419073,206.748376 41.9948163,207.21096 41.9948163,207.781428 L41.9948163,209.842581 C41.9948163,210.413461 42.4419073,210.874394 42.9952438,210.874394 C43.5469795,210.874394 43.9940705,210.413461 43.9940705,209.842581 L43.9940705,207.781428 C43.9940705,207.21096 43.5469795,206.748376 42.9952438,206.748376 L42.9952438,206.748376 Z M28.9884594,206.748376 C28.435103,206.748376 27.988032,207.21096 27.988032,207.781428 L27.988032,209.842581 C27.988032,210.413461 28.435103,210.874394 28.9884594,210.874394 C29.5402552,210.874394 29.9888868,210.413461 29.9888868,209.842581 L29.9888868,207.781428 C29.9888868,207.21096 29.5402552,206.748376 28.9884594,206.748376 L28.9884594,206.748376 Z" id="path3255" transform="translate(40.000000, 198.500000) scale(1, -1) translate(-40.000000, -198.500000) "></path>
            </g>
        </g>
    </g>
</svg>