<?xml version="1.0" encoding="UTF-8"?>
<svg width="33px" height="29px" viewBox="0 0 33 29" version="1.1" xmlns="http://www.w3.org/2000/svg" xmlns:xlink="http://www.w3.org/1999/xlink">
    <!-- Generator: Sketch 60 (88103) - https://sketch.com -->
    <title>path3189</title>
    <desc>Created with Sketch.</desc>
    <g id="Page-1" stroke="none" stroke-width="1" fill="none" fill-rule="evenodd">
        <g id="Artboard-1" transform="translate(-123.000000, -106.000000)" fill="#F47B7B">
            <g id="menu" transform="translate(100.000000, 80.000000)">
                <path d="M45.800355,32.022387 L44.974229,32.9694496 C44.5803794,33.028075 44.4054127,32.9538101 43.9667485,32.9987673 L43.0365208,32.0165234 L45.800355,32.022387 L45.800355,32.022387 Z M48.0687331,32.0180944 C48.0687331,32.0180944 50.2512747,32.0134015 50.4126672,32.0134015 L50.597515,32.0134015 L48.064042,32.0118406 L46.9473696,30.9662884 L45.8093379,32.0118406 L43.0318298,32.0102796 L41.9564786,31.092925 L40.8476912,32.0134015 L39.9420167,33.0202603 L38.9727634,33.0526999 L37.9824503,32.0102796 L36.9352455,31.0296067 L35.9168858,32.0087087 L33.0453568,32.0087087 L31.9439553,30.9662884 L30.9411759,32.0071477 L29.3773554,32.0071477 L29.3773554,32.0087087 C29.3773554,32.0087087 27.4345769,32.0102796 30.9384511,32.0102796 L30.935327,32.0134015 L27.9850881,32.0134015 C25.7799195,32.0134015 23.9926947,33.8051049 23.9926947,36.0162218 L23.9926947,37.0168268 C23.9926947,38.1162915 24.4356008,39.1106928 25.1522055,39.8353309 C24.5014953,40.3825618 23.9618944,41.155229 23.9618944,42.020252 C23.9618944,43.6778542 25.83216,45.0208663 26.9869897,45.0208663 L27.0563875,45.0208663 C27.3901316,48.124743 29.0802714,53.8586099 36.9457255,55 C38.9392273,55 39.9587848,54.9874924 39.9587848,54.9874924 C39.9587848,54.9874924 41.4414599,54.9936962 42.9916064,54.9936962 C50.7604047,53.833995 52.495399,48.1075326 52.8611023,45.0208663 L52.9367581,45.0208663 C53.9687918,45.0208663 55.9618944,43.6778542 55.9618944,42.020252 C55.9618944,41.1584309 55.4281114,40.3856637 54.7684682,39.8384328 C55.4865999,39.1153956 55.9310531,38.1174923 55.9310531,37.0168268 L55.9310531,36.0162218 C55.9310531,33.8051049 54.1438582,32.0134015 51.9386598,32.0134015 L50.597515,32.0134015 L50.4126672,32.0134015 L48.0687331,32.0180944 Z M35.9121947,32.0134015 L35.0185972,33.0401924 C34.1510502,32.8936237 34.4126517,33.1511995 33.915998,33.0140065 L33.0516448,32.0134015 L35.9121947,32.0134015 L35.9121947,32.0134015 Z M41.7261175,53.0753363 C40.498756,53.0753363 39.8850253,53.0726346 39.8850253,53.0726346 C39.8850253,53.0726346 39.9509996,53.0800391 38.373106,53.0800391 C29.7415116,52.0302044 29.3742413,45.0560876 29.3742413,45.0560876 L30.0339145,45.0560876 C30.3770208,45.0575885 30.7937967,44.4670314 31.3166305,44.019861 C31.3166305,44.019861 31.887423,43.363264 32.4776984,43.363264 C33.0484509,43.363264 33.6391255,44.019861 33.6391255,44.019861 C34.3741251,44.4670314 35.1771951,45.0607904 35.9659922,45.0607904 C36.67045,45.0607904 37.4026549,44.4732352 38.1469369,44.019861 C38.1469369,44.019861 38.7805297,43.270608 39.4667223,43.270608 C40.1373446,43.270608 40.8601674,44.019861 40.8601674,44.019861 C41.560034,44.4748361 42.2552095,45.0653932 42.9316207,45.0653932 C43.793279,45.0669942 44.225256,44.4424165 44.9679409,44.019861 C44.9679409,44.019861 45.812432,43.3014266 46.4799601,43.3014266 C47.1322174,43.3014266 47.9949736,44.019861 47.9949736,44.019861 C49.0562516,44.5166614 50.057444,45.070096 50.4005902,45.071697 L50.603304,45.071697 C50.603304,45.071697 50.2376008,52.011393 41.7261175,53.0753363 L41.7261175,53.0753363 Z M52.1491587,43.0626823 C52.0797909,43.0470729 52.0139164,43.019256 51.9386598,43.019256 L49.951446,43.019256 C49.0239132,43.019256 47.824199,41.0458629 46.4646892,41.0458629 C45.4248704,41.0458629 44.2931267,42.9266 43.1163687,43.0762905 L42.839596,43.0762905 C41.7490738,42.9266 40.5709185,41.0165451 39.455843,41.0165451 C38.2994463,41.0165451 37.204233,42.9266 36.1059256,43.0762905 L35.8306501,43.0762905 C34.6372239,42.9266 33.4527806,41.0071394 32.4426152,41.0071394 C30.945857,41.0071394 29.7691888,43.019256 28.9695424,43.019256 L27.9850881,43.019256 C27.8961974,43.019256 27.8162697,43.0485738 27.7343957,43.0700868 C26.4442737,43.0563785 25.9888914,42.5983015 25.9888914,42.0296577 C25.9888914,41.4742219 26.4333545,41.0333553 27.6455051,40.9961328 C27.6022275,40.9887283 27.7854684,40.9825246 27.7854684,40.9825246 C27.7301039,40.9825246 27.6977455,40.9950321 27.6455051,40.9961328 C27.6883834,41.0024366 27.9761251,41.0102413 28.9835757,41.0102413 C30.9552091,41.0102413 30.7953637,38.967206 32.4745843,38.967206 C34.1541443,38.967206 33.7284553,40.9825246 35.9429361,40.9825246 C38.157916,40.9825246 38.1501308,38.99032 39.4437661,38.99032 C40.7384992,38.99032 41.1599962,40.9825246 42.9164496,40.9825246 C44.6713061,40.9825246 45.5293713,38.9797136 46.5567139,38.9797136 C47.5860527,38.9797136 48.4733621,40.9825246 49.8313747,40.9825246 L52.0139164,40.9825246 C53.3504699,40.9825246 53.904115,41.4511079 53.904115,42.0296577 C53.904115,42.5845932 53.3750231,43.0270608 52.1491587,43.0626823 L52.1491587,43.0626823 Z M53.904115,36.7791831 C53.904115,38.0158308 52.3413924,39.0180368 50.4142642,39.0180368 L49.945158,39.0180368 C49.945158,39.0180368 48.1903014,36.9937128 46.4799601,36.9937128 C44.7715152,36.9937128 42.9179468,39.0180368 42.9179468,39.0180368 C42.9179468,39.0180368 40.9861274,36.98911 39.4421691,36.98911 C37.8994085,36.98911 35.9492241,39.0180368 35.9492241,39.0180368 C35.9492241,39.0180368 34.0127137,37.0168268 32.4410482,37.0168268 C30.9442899,37.0168268 29.1449881,38.8148139 28.9757805,38.9856172 C27.2883655,38.8284221 25.9888914,37.9048637 25.9888914,36.7791831 L25.9888914,36.2194446 C25.9888914,34.9847281 27.5499771,33.9821719 29.4787322,33.9821719 C29.9477586,33.9821719 29.5508548,34.258509 30.52439,34.258509 C32.6761503,34.258509 31.7166484,34.9984064 39.7727393,34.9984064 C45.7972609,34.9984064 45.9909917,34.1705658 49.8328719,34.1705658 C50.2068593,34.1705658 50.4142642,33.9821719 50.4142642,33.9821719 C52.3413924,33.9821719 53.904115,34.9847281 53.904115,36.2194446 L53.904115,36.7791831 L53.904115,36.7791831 Z M45.3172754,47.6572603 L43.588569,48.6578653 C43.1117775,48.9341324 42.948788,49.5463025 43.2240635,50.0242915 C43.4992392,50.5018803 44.1098758,50.6672803 44.5866674,50.3909132 L46.3153737,49.3903082 C46.7937622,49.1128404 46.9567517,48.5022713 46.6814762,48.0226813 C46.4062007,47.5446923 45.7956639,47.3796925 45.3172754,47.6572603 L45.3172754,47.6572603 Z M39.9618789,47.0220763 C39.4113279,47.0220763 38.9637806,47.4707476 38.9637806,48.0226813 L38.9637806,50.0242915 C38.9637806,50.5762252 39.4113279,51.0248965 39.9618789,51.0248965 C40.5124299,51.0248965 40.9599772,50.5762252 40.9599772,50.0242915 L40.9599772,48.0226813 C40.9599772,47.4707476 40.5124299,47.0220763 39.9618789,47.0220763 L39.9618789,47.0220763 Z M36.3351888,48.6578653 L34.6064824,47.6572603 C34.1280939,47.3796925 33.5175571,47.5446923 33.2422816,48.0226813 C32.9670061,48.5022713 33.1299956,49.1128404 33.6083841,49.3903082 L35.3370904,50.3909132 C35.813882,50.6672803 36.4245186,50.5018803 36.6996943,50.0242915 C36.9749698,49.5463025 36.8119803,48.9341324 36.3351888,48.6578653 L36.3351888,48.6578653 Z M31.9365494,27.9965228 C34.9249756,27.9965228 40.0203675,27.9953521 40.0203675,27.9953521 C40.0203675,27.9953521 44.1991058,27.9859664 47.8858815,27.9859664 C51.1464691,27.9953521 50.5990122,32.0071477 50.597515,32.0134015 L52.9367581,32.0134015 C52.9367581,32.0134015 52.8997287,26.0152436 48.9069361,26 C44.3975277,26 39.9958142,26.0152436 39.9958142,26.0152436 C39.9958142,26.0152436 34.5881174,26.0183705 30.932203,26.0183705 C26.9148572,26.0183705 26.9733457,32.0071477 26.9733457,32.0071477 L29.3773554,32.0071477 C29.3726743,31.9856547 28.6619285,27.9965228 31.9365494,27.9965228 L31.9365494,27.9965228 Z" id="path3189" transform="translate(39.961894, 40.500000) scale(1, -1) translate(-39.961894, -40.500000) "></path>
            </g>
        </g>
    </g>
</svg>