<?xml version="1.0" encoding="UTF-8"?>
<svg width="32px" height="24px" viewBox="0 0 32 24" version="1.1" xmlns="http://www.w3.org/2000/svg" xmlns:xlink="http://www.w3.org/1999/xlink">
    <!-- Generator: Sketch 60 (88103) - https://sketch.com -->
    <title>path3327</title>
    <desc>Created with Sketch.</desc>
    <g id="Page-1" stroke="none" stroke-width="1" fill="none" fill-rule="evenodd">
        <g id="Artboard-1" transform="translate(-124.000000, -345.000000)" fill="#FFFFFF">
            <g id="menu" transform="translate(100.000000, 80.000000)">
                <path d="M46.9949906,266.967 C46.9844035,266.967 45.9501658,265 45.9501658,265 L40.1969876,265 L39.8029685,265 L33.9635954,265 C33.9635954,265 33.0155625,266.967 33.0050254,266.967 C24.7557137,266.967 24,274.977393 24,274.977393 C24,274.977393 25.0019032,274.977393 26.4872004,274.978992 L26.5180228,274.978992 C26.5191913,274.978992 26.5223075,274.983687 26.5238756,274.983687 L27.800048,274.978992 L34.5855364,274.978992 C34.5824401,274.982088 34.579244,274.985185 34.5765473,274.987982 L33.1373039,274.994175 C33.1373039,274.994175 33.3510431,275.279064 33.720592,275.693013 C32.9234849,276.285766 31.705831,277.007579 30.4885667,277.007579 C28.4769619,277.007579 26.6069742,275.071091 26.5238756,274.983687 L24.1170431,274.994175 C24.1170431,274.994175 27.160988,279.073326 30.419511,279.073326 C30.4791981,279.073326 30.5392848,279.06084 30.5993715,279.059242 C31.7690339,280.080028 33.3452501,281.008316 34.9764592,281.008316 C36.5861945,281.008316 38.2022222,280.030882 39.4288251,279.010095 C39.4319213,279.010095 39.4366156,279.073326 39.4397118,279.073326 C39.4705742,279.073326 39.5029347,279.003902 39.533797,279.002703 C40.7018714,280.021492 42.3377747,281.038783 43.9662871,281.038783 C45.5776205,281.038783 47.1335215,280.089418 48.3601245,279.067033 C48.3830964,279.068631 48.4065678,279.073326 48.4295397,279.073326 C51.5199679,279.073326 54.6364642,275.360575 54.9489828,274.977393 L56,274.977393 C56,274.977393 55.2443223,266.967 46.9949906,266.967 L46.9949906,266.967 Z M27.6381357,272.965528 C27.6381357,272.965528 27.578059,268.820438 36.0153912,268.820438 C36.0200855,268.820438 36.0200855,268.41542 36.0216835,267.901521 L36.0216835,267.004069 L39.835329,267.004069 L40.1646271,267.004069 L44.0107329,267.004069 C44.0107329,267.004069 44.0076367,268.820438 44.0154272,268.820438 C52.4524298,268.820438 52.3618404,272.965528 52.3618404,272.965528 C52.3618404,272.965528 43.8862848,272.968654 41.0143899,272.968654 L41.0143899,269.979334 L39.0164284,269.979334 L39.0164284,272.968654 C36.1753959,272.968654 27.6381357,272.965528 27.6381357,272.965528 L27.6381357,272.965528 Z M44.0029424,276.983006 L43.9615929,276.984604 C43.9677853,276.978311 43.9752762,276.972118 43.9830667,276.967423 C43.9892591,276.972118 43.9970496,276.978311 44.0029424,276.983006 L44.0029424,276.983006 Z M35.0151121,276.984604 L34.9394045,276.984604 C34.9518892,276.973616 34.9658722,276.963128 34.9779574,276.95224 C34.990542,276.963128 35.0026273,276.973616 35.0151121,276.984604 L35.0151121,276.984604 Z M35.0443763,279.036267 C34.2746158,279.036267 33.5219345,278.750279 32.8832939,278.39127 C33.6285044,278.00649 34.3241554,277.50164 34.9241231,276.996691 L35.0286955,276.996691 C35.6322588,277.526214 36.3430913,278.055636 37.1171465,278.449806 C36.4816222,278.777948 35.7645973,279.036267 35.0443763,279.036267 L35.0443763,279.036267 Z M39.1736366,276.978311 L39.1689423,276.983006 C39.1475684,276.981508 39.1271933,276.981508 39.1073175,276.978311 L39.1736366,276.978311 L39.1826256,276.97052 L39.0242189,276.97052 C37.9560227,276.815289 36.9697264,276.185875 36.3217173,275.674733 C36.6494174,275.325114 36.8678508,275.066796 36.9404622,274.978992 L43.6061267,274.978992 C43.6030305,274.98049 43.5999343,274.985185 43.5967382,274.987982 L42.1271318,274.994175 C42.1271318,274.994175 42.3455652,275.285258 42.7209071,275.707098 C42.0236581,276.222535 41.0143899,276.830472 39.9629732,276.975215 L39.1736366,276.978311 L39.1736366,276.978311 Z M43.9709814,279.036267 C43.2198981,279.036267 42.4871924,278.760767 41.859059,278.416243 C42.6226271,278.026768 43.3334595,277.51093 43.9463115,276.996691 L44.0169253,276.995093 C44.6112,277.518722 45.3126439,278.043549 46.0746139,278.434523 C45.4327973,278.771655 44.7016896,279.036267 43.9709814,279.036267 L43.9709814,279.036267 Z M48.7897002,276.975215 L48.1002417,276.978311 L48.0987435,276.979909 C48.0955474,276.978311 48.0924512,276.978311 48.0893549,276.978311 L48.1002417,276.978311 L48.1092307,276.97052 L48.0140469,276.97052 C46.9551393,276.816787 45.9778321,276.196364 45.3282249,275.688318 C45.6653135,275.331307 45.886943,275.068294 45.960653,274.978992 L52.5955551,274.978992 C52.404788,275.16349 50.636646,276.808996 48.7897002,276.975215 L48.7897002,276.975215 Z M47.0074754,284.973092 C46.4550496,284.973092 46.0086944,285.419505 46.0086944,285.972402 L46.0086944,287.970223 C46.0086944,288.521222 46.4550496,288.969134 47.0074754,288.969134 C47.558403,288.969134 48.0062564,288.521222 48.0062564,287.970223 L48.0062564,285.972402 C48.0062564,285.419505 47.558403,284.973092 47.0074754,284.973092 L47.0074754,284.973092 Z M40.0152094,283.006137 C39.4642818,283.006137 39.0164284,283.454049 39.0164284,284.005048 L39.0164284,286.002869 C39.0164284,286.554267 39.4642818,287.002179 40.0152094,287.002179 C40.5680347,287.002179 41.0143899,286.554267 41.0143899,286.002869 L41.0143899,284.005048 C41.0143899,283.454049 40.5680347,283.006137 40.0152094,283.006137 L40.0152094,283.006137 Z M33.023363,285.003958 C32.4724753,285.003958 32.024582,285.45187 32.024582,286.002869 L32.024582,288.001089 C32.024582,288.552089 32.4724753,289 33.023363,289 C33.5757688,289 34.022124,288.552089 34.022124,288.001089 L34.022124,286.002869 C34.022124,285.45187 33.5757688,285.003958 33.023363,285.003958 L33.023363,285.003958 Z" id="path3327" transform="translate(40.000000, 277.000000) scale(1, -1) translate(-40.000000, -277.000000) "></path>
            </g>
        </g>
    </g>
</svg>